<?xml version="1.0" encoding="utf-8"?>
<!-- Generator: Adobe Illustrator 23.0.2, SVG Export Plug-In . SVG Version: 6.00 Build 0)  -->
<svg version="1.1" id="Layer_1" xmlns="http://www.w3.org/2000/svg" xmlns:xlink="http://www.w3.org/1999/xlink" x="0px" y="0px"
	 viewBox="0 0 1295.61 212.04" style="enable-background:new 0 0 1295.61 212.04;" xml:space="preserve">
	 <style>path { fill: rgb(26, 168, 167) }</style>
<path d="M79.47,208.64c-23.85,0-47.69,0.1-71.53-0.15c-2.43-0.03-6.75-1.87-6.93-3.28c-0.63-5.03,3.81-4.08,6.96-4.26
	c1.41-0.08,2.83,0,4.25-0.04c13.24-0.36,16.7-3.83,16.7-17.09C28.9,131.4,28.85,78.99,28.78,26.58
	C28.76,13.01,24.55,8.86,11.02,8.72c-1.89-0.02-4,0.51-5.61-0.17C3.39,7.7,0.41,7.11,0,4.47C0.18,1.8,3.23,1.19,5.19,0.35
	c1.6-0.69,3.72-0.16,5.61-0.16c21.72,0,43.44-0.04,65.16,0.04c3.03,0.01,7.7-1.09,6.65,4.27c-0.34,1.75-4.08,3.92-6.35,4.03
	C56.56,9.48,55.14,10.8,55.14,30.55c-0.01,50.29-0.01,100.57,0.02,150.86c0,3.53,0.26,7.07,0.43,10.6c0.24,5,3.11,8.6,7.8,8.51
	c17.6-0.34,35.72,1.06,52.65-2.68c21.6-4.77,29.5-23.96,34.66-43.56c1.73-6.59,2.26-13.49,3.92-20.1c0.56-2.22,2.8-2.98,4.44-2.96
	c1.79,0.41,3.37,1.31,3.3,3.4c-0.76,22.65-1.99,45.28-2.83,67.92c-0.19,5.13-2.52,6.19-7.1,6.16
	C128.11,208.55,103.79,208.64,79.47,208.64z"/>
<path d="M421.15,60.57c0,2.87,0,5.65,0,8.42c0,31.39-0.09,62.77,0.09,94.16c0.03,5.61,0.59,11.35,1.86,16.81
	c3.55,15.24,17.3,22.1,31.75,16.03c11.53-4.84,18.36-13.65,20.59-25.94c0.54-3,0.85-6.09,0.86-9.14c0.07-24.31,0.13-48.61,0-72.92
	c-0.07-13.1-3.21-16.12-16.06-17.3c-1.88-0.17-5.38-1.84-5.36-3.57c0.49-1.88,3.25-3.03,5-3.21c13.06-1.28,26.15-2.22,40.09-3.33
	c0,2.5,0,5.27,0,8.04c0,38.23-0.02,76.46,0.01,114.69c0.01,13.45,2.42,16.35,15.54,17.5c5.2,0.46,5.85,2.74,4.2,7.74
	c-13.21,0-26.58,0.13-39.93-0.22c-1.18-0.03-3.06-3.08-3.26-4.88c-0.48-4.33-0.16-8.74-0.16-13.12c-0.65-0.24-1.3-0.49-1.95-0.73
	c-1.51,1.84-3.02,3.68-4.55,5.52c-12.12,14.58-30.85,20.05-48.5,14.16c-14.35-4.79-22.85-15.2-23.13-30.46
	c-0.52-28.54-0.35-57.1-0.46-85.65c-0.01-2.6,0.09-5.2-0.07-7.79c-0.6-10.18-4.36-13.9-14.4-14.56c-2.82-0.18-16.12,1.01-15.37-3.88
	c0.21-1.36-5.29-0.83,15.45-3.07C395.53,62.58,407.72,61.71,421.15,60.57z"/>
<path d="M1251.84,100.65c4.85,1.37,7.78,1.95,10.53,3.01c20.09,7.72,30.94,22.9,32.91,43.81c2.28,24.17-7,43.51-28.06,56.15
	c-22.66,13.6-54.76,9.94-71.35-7.93c-8.81-9.48-13.25-20.69-8.99-33.76c3.3-10.13,13.56-15.27,22.41-11.7
	c7.53,3.04,10.75,13.31,6.78,22.64c-1.27,3-3.31,5.7-5.19,8.4c-5.48,7.84-4.15,13.73,4.31,18.56c17.03,9.7,41.21,2.02,48.19-16.25
	c7.28-19.06,7.74-38.84,1.24-58.27c-5.15-15.38-15.91-21.28-31.92-18.93c-3.97,0.58-8.01,1.68-11.9,1.31
	c-2.16-0.2-5.88-2.61-6.12-4.51c0.12-2.72,3.38-4.35,5.59-5.26c2.22-0.91,5.11-0.33,7.69-0.21c20.82,0.99,30.35-5.6,34.91-25.74
	c2.72-12.03,2.97-24.39-1.25-36.33c-7.5-21.23-35.96-27.24-51.61-10.98c-6.66,6.91-6.12,11.8,1.74,15.85
	c7.9,4.07,11.94,10,10.84,16.45c-1.07,6.24-4.97,10.06-11.1,11.38c-8.43,1.81-16.33-1.36-19.99-8.51
	c-5.21-10.17-3.51-20.3,2.14-29.64c17.9-29.57,69.22-31.02,88.96-2.67c16.47,23.64,7.69,54.44-19.32,67.76
	C1260.08,96.84,1256.81,98.31,1251.84,100.65z"/>
<path d="M1063,208.16c-35.45,0-70.04,0-105.08,0c-0.31-15.74,4.48-29.56,11.6-42.73c8.66-16.03,21.53-28.52,34.54-40.89
	c6.15-5.85,12.62-11.46,18.13-17.88c18.1-21.06,23.24-45.08,13.27-71.16c-7.81-20.42-35.41-26.45-51.29-11.75
	c-3.13,2.9-5.73,7.04-7.01,11.11c-2.36,7.49-0.34,10.04,7.36,11.71c0.46,0.1,0.92,0.22,1.38,0.31c6.64,1.23,13.07,3.8,13.51,11.23
	c0.25,4.27-1.95,9.72-4.91,12.9c-5.19,5.58-12.22,5.33-18.95,1.9c-11.06-5.62-15.96-20.14-11.29-33.96
	c5.74-17.01,18.41-26.12,35.15-30.6c21.63-5.8,47.66,3,58.2,20.77c12.36,20.83,10.27,41.91-1.11,62.53
	c-6.17,11.18-15.52,19.34-25.53,27.05c-13.97,10.76-28.02,21.54-40.98,33.47c-8.32,7.66-13.65,17.92-16.07,29.37
	c-0.87,4.14,0.42,5.76,4.48,5.72c17.69-0.17,35.42,0.24,53.08-0.61c15.8-0.77,26.68-11.86,28.99-27.7c0.24-1.63-0.13-3.79,0.79-4.77
	c1.22-1.31,3.43-2.29,5.19-2.25c0.99,0.02,2.87,2.5,2.74,3.69C1067.3,173.12,1065.12,190.63,1063,208.16z"/>
<path d="M545.83,147.81c2.94,10.23,4.68,20.37,8.74,29.47c7.24,16.23,19.9,26.23,38.41,26.65c12.93,0.29,23.41-7.34,26.43-18.38
	c3.49-12.77-0.72-24.21-12.81-30.72c-8.86-4.77-18.63-7.84-27.92-11.83c-7.78-3.34-15.85-6.25-23.1-10.54
	c-13.82-8.17-20.49-20.65-18.44-36.86c2.16-17.13,12.01-28.48,28.18-33.88c14.1-4.7,27.89-3.6,40.73,4.56
	c1.59,1.01,3.28,1.86,4.92,2.78c4.35,2.44,7.85,2.75,10.21-2.87c0.68-1.61,3.01-3.36,5.06-3.55c1.33,0.58,2.46,3.38,2.49,5.09
	c0.21,13.22,0.24,26.44-0.04,39.66c-0.04,1.69-1.75,4.8-3.33,5c-2.05-0.07-3.89-2.86-4.14-4.54c-1.46-9.95-3.96-19.39-10.35-27.46
	c-8.97-11.34-23.79-16.27-37.35-12.27c-9.12,2.69-15.3,8.46-17.07,17.92c-1.97,10.54,1.12,19.83,11,24.59
	c13.13,6.32,26.92,11.26,40.39,16.87c11.98,4.99,23.52,10.91,27.76,24.35c5.73,18.17,2.07,34.67-11.69,48.1
	c-12.91,12.6-32.82,15.61-49.35,7.92c-5.75-2.68-11.08-6.25-16.71-9.23c-6.1-3.23-8.8-1.72-10.72,4.96
	c-0.55,1.9-1.97,4.34-4.22,4.97c-2.04-0.97-3.16-3.89-3.19-5.85c-0.26-16.52-0.08-33.05-0.18-49.57
	C539.51,147.76,541.9,146.47,545.83,147.81z"/>
<path d="M816.85,100.27c0,26.9-0.01,53.81,0.02,80.71c0,2.83-0.01,5.68,0.38,8.47c1.24,8.93,3.96,11.25,12.98,11.47
	c1.65,0.04,3.56-0.48,4.89,0.18c1.75,0.86,4.05,1.95,4.53,4.01c0.11,1.54-3.22,3.33-4.87,3.36c-13.45,0.28-26.9,0.16-40.35,0.16
	c-6.37,0-12.76,0.24-19.11-0.17c-1.72-0.11-4.56-1.66-4.95-3.36c0.09-1.76,3.11-3.43,4.84-3.63c17.67-2.01,18.25-2.56,18.25-20.82
	c0-34.22,0.04-68.44-0.04-102.66c-0.04-17.64-4.37-21.86-22.04-22.99c-3.47-0.22-9.62-1.86-9.76-3.32c-0.65-6.5,5.63-4.56,9.22-5.57
	c17.81-5.01,30.59-15.39,35.98-33.51c1.08-3.63,2.27-6.85,6.26-5.4c1.82,0.66,3.57,4.36,3.59,6.69
	C816.93,42.68,816.84,71.48,816.85,100.27z"/>
<path d="M314.35,130.98c0-17.71-0.22-35.42,0.12-53.12c0.11-5.73-1.86-7.59-7.31-7.09c-3.75,0.34-7.59,0.37-11.31-0.11
	c-1.6-0.2-4.24-2.1-4.19-3.12c0.09-1.91,1.43-5.01,2.89-5.43c23.78-6.83,31.72-25.39,35.79-47.13c0.36-1.93,2.27-5.21,3.9-5.27
	c1.98,0.41,3.77,3.92,3.84,5.95c0.39,10.61,0.1,21.24,0.21,31.86c0.17,16.96-2.32,14.65,15.21,14.86c3.3,0.04,6.65,0.11,9.87,0.22
	c12.53,0.44,40.64-0.13,15.43,4.37c14.3,5.19-13.39,3.51-15.22,3.67c-5.62,0.49-11.35,0.57-16.97,0.08
	c-6.18-0.54-8.17,1.54-8.09,7.86c0.31,27.15,0.13,54.3,0.13,81.45c0,6.85-0.05,13.69,0.03,20.54c0.03,2.83,0.12,5.69,0.6,8.46
	c0.9,5.24,3.26,9.67,9.18,10.11c5.83,0.43,17.69-3.93,20.36-8.45c2.66-4.52,4.43-9.5,4.59-15.28c0.06-2.11-0.35-4.49,0.46-6.29
	c0.74-1.64,2.73-3.38,4.43-3.68c0.97-0.18,3.49,2.47,3.51,3.74c0.08,8.13-1.8,16.54-4.58,24.57c-3.22,13.14-24.91,19.17-41.81,17.28
	c-11.82-1.32-20.34-10.86-20.72-24.82c-0.51-18.4-0.12-36.82-0.12-55.24C314.49,130.98,314.42,130.98,314.35,130.98z"/>
<path d="M899.61,125.7c10.83,0.01,21.66,0.11,32.49-0.04c4.5-0.07,6.28,1.63,6.2,6.23c-0.32,17.1,1.84,14.8-14.45,14.9
	c-18.36,0.12-36.73-0.14-55.09,0.12c-5.58,0.08-7.37-1.84-7.2-7.39c0.49-15.88-1.85-13.65,14.04-13.82
	C883.6,125.62,891.61,125.69,899.61,125.7z"/>
<path d="M1128.44,146.81c-10.59-0.01-21.18-0.14-31.76,0.05c-4.62,0.08-6.89-1.17-6.78-6.35c0.39-17.58-1.84-14.64,14.4-14.79
	c18.11-0.17,36.23,0.18,54.34-0.15c6.22-0.11,8.18,1.97,8.05,8.13c-0.26,13.11,0.03,13.11-12.85,13.12
	C1145.38,146.82,1136.91,146.82,1128.44,146.81z"/>
<path d="M286.06,92.23c-10.26-22.04-28.32-33.5-53.01-33.22c-24.45,0.27-41.33,12.54-51.93,33.99c-6.6,13.36-8.95,27.71-8.9,42.5
	c0.19,1.6,0.03,2.29,0.26,3.73c1.44,10.44,2.34,22.3,6.9,34.19c9.03,23.55,26.43,37.62,52.44,38.43
	c25.52,0.79,48.66-15.97,54.65-34.03C296.62,147.25,294.34,121.32,286.06,92.23z M262.47,183.03
	c-4.99,13.77-14.23,20.42-28.08,20.72c-13.8,0.31-23-6.11-28.63-19.79c-6.45-15.66-6.5-32.18-6.72-47.46
	c0.12-18,0.57-34.69,7.05-50.59c5.04-12.35,14.2-18.31,27.3-18.61c13.3-0.31,22.44,5.5,27.87,17.72c6.37,14.34,7.12,29.7,7.47,45
	C269.13,147.93,268.69,165.88,262.47,183.03z"/>
</svg>
