<?xml version="1.0" encoding="UTF-8" standalone="no"?>
<!-- Created with Inkscape (http://www.inkscape.org/) -->

<svg
   xmlns:dc="http://purl.org/dc/elements/1.1/"
   xmlns:cc="http://creativecommons.org/ns#"
   xmlns:rdf="http://www.w3.org/1999/02/22-rdf-syntax-ns#"
   xmlns:svg="http://www.w3.org/2000/svg"
   xmlns="http://www.w3.org/2000/svg"
   version="1.1"
   width="800"
   height="200"
   id="svg2">
  <defs>
      <style>
         path {
            /* fill: #0099cc; */
            fill: rgb(255,100,50);
         }
      </style>
  </defs>
  <metadata
     id="metadata7">
    <rdf:RDF>
      <cc:Work
         rdf:about="">
        <dc:format>image/svg+xml</dc:format>
        <dc:type
           rdf:resource="http://purl.org/dc/dcmitype/StillImage" />
        <dc:title></dc:title>
      </cc:Work>
    </rdf:RDF>
  </metadata>

  <g
     transform="translate(0,-852)"
     id="layer1">
    <path
       d="m 8.24,909.8 13.57,134.2 48.02,0 90.67,-133.2 -40.6,133.2 39.4,0 39.3,-134.2 -80.3,0 -64.31,96.2 -10.81,-96.2 z m 231.26,0 c -26.1,0 -48.2,26.1 -48.2,48.7 0,20.1 19.1,37.7 37.2,37.7 l 21,0 c 6.8,0 8.5,3.3 8.5,6.8 0,5 -4.7,8 -10.3,8 l -63.7,0 -9.8,33 77.6,0 c 21.3,0 42.9,-25 42.9,-45.2 0,-17.6 -17.3,-37.8 -34.1,-37.8 l -24.8,0 c -6.8,0 -7.8,-5.4 -7.8,-9.1 0,-7.5 7.5,-8.5 12.6,-8.5 20,0 60.2,0 60.2,0 l 9.3,-33.6 z m 84.4,0 -35.7,134.2 39.5,0 36.4,-134.2 z m 348,106.2 c 10.3,15 28.1,28 48.5,28 l 39.4,0 9.1,-33 -40,0 c -15.6,0 -28.9,-17.3 -28.9,-32.4 0,-20.1 17.9,-35.2 39.7,-35.2 l 34.2,0 10.6,-33.6 -54.3,0 c -26.4,0 -67.6,18.6 -67.6,71.4 0,10 2.5,19.8 6.8,29.8 z m -50.9,-5 25.8,-101.2 -35.4,0 -34.8,134.2 -19.4,-134.2 -41,0 -72.1,101.2 -25.7,0 c -15.6,0 -28.9,-17.3 -28.9,-32.4 0,-20.1 17.9,-35.2 39.7,-35.2 l 34.2,0 10.6,-33.6 -54.3,0 c -26.4,0 -67.6,18.6 -67.6,71.4 0,34.8 25.6,62.8 57.8,62.8 l 57,0 61.1,-93 10.3,93 122.9,0 8.8,-33 z"
       id="path3000"
       style="fill-opacity:1;stroke:none" />
    <g
       transform="matrix(2.514,0,0,2.514,-352.8,-23.87)"
       id="text3042"
       style="font-size:17.0433px;font-style:normal;font-variant:normal;font-weight:normal;font-stretch:normal;text-align:start;line-height:100%;letter-spacing:0px;word-spacing:0px;writing-mode:lr-tb;text-anchor:start;fill-opacity:1;stroke:none;font-family:Arial;-inkscape-font-specification:Arial">
      <path
         d="m 437.1,367 0,-10.8 -4,0 0,-1.4 9.7,0 0,1.4 -4.1,0 0,10.8 z"
         id="path3047"
         style="fill-opacity:1" />
      <path
         d="m 444.4,367 0,-12.2 2.4,0 2.9,8.6 c 0.3,0.8 0.5,1.4 0.6,1.8 0.1,-0.4 0.3,-1.1 0.6,-1.9 l 3,-8.5 2.1,0 0,12.2 -1.5,0 0,-10.2 -3.6,10.2 -1.4,0 -3.6,-10.4 0,10.4 z"
         id="path3049"
         style="fill-opacity:1" />
    </g>
  </g>
</svg>
